<?xml version="1.0" encoding="UTF-8" standalone="no"?>
<svg
   version="1.1"
   width="2.6009002in"
   height="1.882599in"
   viewBox="0 0 187.26519 135.54729"
   id="svg72"
   xmlns="http://www.w3.org/2000/svg"
   xmlns:svg="http://www.w3.org/2000/svg">
  <defs
     id="defs72" />
  <g
     id="Layer1000"
     transform="translate(-940.86669,-207.6708)">
    <path
       d="m 1015.1362,239.1897 -2.0117,3.1454 -13.5687,9.1309 h 8.6083 l -2.2827,3.3615 h -14.4636 l 2.2937,-3.3615 13.3293,-8.9174 h -7.7753 l 2.3027,-3.3589 z"
       style="fill:#00458f;fill-rule:evenodd"
       id="path1" />
    <path
       d="m 1033.2117,239.1897 -6.8592,10.0697 c -0.07,0.071 -0.1536,0.1884 -0.2491,0.351 -1.4672,2.1537 -2.8737,3.6054 -4.2196,4.3564 -1.3459,0.7517 -2.9621,1.1246 -4.8539,1.1246 -0.762,0 -1.4433,-0.0309 -2.0446,-0.1 -0.6007,-0.0684 -1.1608,-0.24 -1.6731,-0.5174 -0.5168,-0.2762 -0.8368,-0.7227 -0.9658,-1.3382 -0.1284,-0.6136 0.044,-1.4336 0.5226,-2.4589 0.1355,-0.291 0.3419,-0.6574 0.6187,-1.0975 l 4.8094,-0.5226 -0.085,0.18 c -0.1213,0.1981 -0.2291,0.4026 -0.3246,0.6065 l -0.1555,0.3336 c -0.4013,0.8601 -0.1277,1.2891 0.8169,1.2891 0.4555,0 0.8633,-0.1129 1.2259,-0.34 0.3613,-0.2291 0.689,-0.52 0.9781,-0.8755 0.291,-0.3556 0.6555,-0.8601 1.0956,-1.5137 l 6.5107,-9.5471 z"
       style="fill:#00458f;fill-rule:evenodd"
       id="path2" />
    <path
       d="m 1042.1987,254.6759 c -1.0478,0.28 -2.1382,0.4155 -3.2763,0.4155 -2.2253,0 -3.7028,-0.5645 -4.4326,-1.6936 -0.7265,-1.1311 -0.6123,-2.7228 0.3459,-4.7791 0.4877,-1.0446 1.1181,-2.0711 1.8923,-3.0828 0.7717,-1.0091 1.6789,-1.9672 2.7235,-2.8763 1.04,-0.9046 2.1562,-1.6627 3.3453,-2.2692 1.1911,-0.6091 2.2647,-1.0052 3.2209,-1.1917 0.9556,-0.1819 1.8911,-0.2755 2.8008,-0.2755 2.3757,0 3.8281,0.631 4.3603,1.8911 0.5311,1.2627 0.3556,2.8409 -0.5271,4.7326 -0.6,1.2872 -1.4975,2.6208 -2.6931,4.0054 -1.1962,1.3827 -2.6944,2.6073 -4.4925,3.6745 0.66,0.9026 1.1117,1.4356 1.3549,1.6007 l -2.966,2.5157 c -0.4239,-0.462 -0.9762,-1.3511 -1.6563,-2.6673 z m 1.6685,-4.2874 v 0 c 0.8414,-0.6471 1.6524,-1.4543 2.4305,-2.4253 0.782,-0.9717 1.3556,-1.8517 1.724,-2.6408 0.3833,-0.8246 0.4523,-1.5046 0.2033,-2.0382 -0.2491,-0.5336 -0.7794,-0.8001 -1.5905,-0.8001 -0.88,0 -1.7904,0.3246 -2.7266,0.9665 -0.9356,0.6446 -1.8182,1.5053 -2.6402,2.5834 -0.822,1.0737 -1.4072,1.9911 -1.7588,2.7454 -0.3607,0.7755 -0.4342,1.4265 -0.2142,1.9575 0.2168,0.5291 0.7549,0.7936 1.6078,0.7936 l 0.5439,-0.0219 c -0.061,-0.3271 -0.2303,-0.6555 -0.5058,-0.9846 -0.2755,-0.3336 -0.4568,-0.5645 -0.5426,-0.7007 l 1.8607,-1.5665 c 0.5381,0.4464 1.0737,1.1581 1.6085,2.1317 z"
       style="fill:#00458f;fill-rule:evenodd"
       id="path3" />
    <path
       d="m 1075.1397,244.3204 -4.6719,0.5019 0.04,-0.0864 c 0.3555,-0.7607 0.391,-1.3272 0.109,-1.6963 -0.2826,-0.369 -0.7007,-0.5555 -1.2472,-0.5555 -0.711,0 -1.5252,0.262 -2.4453,0.7846 -0.9201,0.5245 -1.8311,1.3227 -2.7428,2.3963 -0.9091,1.0736 -1.6007,2.1182 -2.0762,3.1363 -0.3601,0.7736 -0.4536,1.4227 -0.2775,1.9447 0.1775,0.5226 0.6665,0.7845 1.4692,0.7845 0.74,0 1.4736,-0.2355 2.2008,-0.7019 0.7265,-0.4717 1.511,-1.1937 2.3492,-2.1673 l 4.1919,0.7046 c -1.2201,1.6117 -2.7628,2.9718 -4.6255,4.0744 -1.8602,1.1027 -3.8719,1.6511 -6.0327,1.6511 -2.2537,0 -3.6964,-0.6 -4.33,-1.8001 -0.629,-1.2027 -0.48,-2.8028 0.4536,-4.8016 0.711,-1.5292 1.7827,-3.0628 3.2099,-4.6074 1.4266,-1.5427 3.0247,-2.7544 4.7965,-3.6364 1.7672,-0.8807 3.6009,-1.3227 5.5016,-1.3227 1.9692,0 3.2919,0.4936 3.9719,1.4827 0.6801,0.9865 0.7336,2.2937 0.1555,3.9145 z"
       style="fill:#00458f;fill-rule:evenodd"
       id="path4" />
  </g>
  <g
     id="Layer1001"
     transform="translate(-940.86669,-207.6708)">
    <path
       d="m 962.4217,320.4411 c 0.3323,0.0845 0.7504,0.3761 1.2517,0.8762 0.1652,0.6684 0.8756,1 2.1273,1 2.0846,0 4.1293,0.2091 6.1327,0.6265 0.8323,0.3336 1.7091,0.4181 2.6279,0.2491 0.9168,-0.1646 1.5427,-0.04 1.8775,0.3761 0.1652,0.751 -0.1258,1.5446 -0.8762,2.3783 -1.0852,1.5865 -1.7956,3.0873 -2.1279,4.5054 0.2497,0.9182 0.291,1.5446 0.1252,1.8782 -0.5845,0.5846 -1.4201,0.7491 -2.5027,0.5001 -0.5846,-0.082 -1.6272,-0.1265 -3.1286,-0.1265 -1.2524,-0.08 -2.2525,-0.1245 -3.0041,-0.1245 -0.6691,0.0845 -1.0014,0.5845 -1.0014,1.5027 0,2.1691 0,3.9628 0,5.3816 0,1.3356 -0.0432,2.2092 -0.1245,2.6266 -0.251,0.4181 -0.9188,0.7936 -2.0027,1.1272 -0.5846,-0.169 -0.8343,-0.4174 -0.751,-0.751 0.0819,-0.3336 0.1251,-1.0427 0.1251,-2.1272 -0.0838,-1.9189 -0.0432,-3.0854 0.1246,-3.5054 0.2516,-2.5028 0.0413,-3.8371 -0.6252,-4.0035 -1.2517,-0.082 -2.295,-0.042 -3.1286,0.1245 -0.5852,0.3355 -1.5453,0.5845 -2.879,0.7516 -1.0013,0.1684 -2.6272,0.7936 -4.8796,1.8757 -0.502,0.2509 -0.7517,0.1264 -0.7517,-0.3736 -0.1678,-1.002 0.3323,-2.0027 1.5014,-3.0047 1.1678,-1.3337 1.5427,-2.8789 1.1272,-4.6307 -0.2517,-0.751 -0.7104,-1.1665 -1.3769,-1.251 -0.7517,-0.1665 -1.2517,-0.7517 -1.502,-1.7518 -0.1684,-0.3335 0.0825,-0.5419 0.7503,-0.6265 0.5014,0 2.0027,-0.2071 4.5055,-0.6245 1.502,-0.3336 3.5048,-0.6672 6.0075,-1.0027 0.751,-0.0826 1.2511,-0.4155 1.5027,-1 0.2497,-0.5001 0.5407,-0.7917 0.8755,-0.8762 z m -1.0013,5.2545 v 0 c -0.2504,-0.5 -0.751,-0.6665 -1.5014,-0.5 -0.4194,0.169 -1.0446,0.251 -1.8776,0.251 -1.8369,0.6697 -2.9628,1.2943 -3.3796,1.8762 -0.5845,1.0027 -0.8755,1.7543 -0.8755,2.2544 0.0819,0.8355 0.582,1.2091 1.5014,1.1265 1.251,-0.502 2.795,-0.8336 4.6313,-1.002 0.7504,0 1.2923,-0.4162 1.6272,-1.2517 0.0806,-0.6671 0.0406,-1.5827 -0.1258,-2.7544 z m 7.5089,-0.6245 v 0 c -0.2504,0 -0.8349,-0.042 -1.7518,-0.1246 -0.5845,0 -1.0013,-0.0419 -1.2517,-0.1264 -0.8349,-0.082 -1.3768,0.0845 -1.6272,0.5026 -0.669,1.5001 -0.7929,2.7118 -0.3755,3.6273 0.0826,0.5846 2.1686,0.8356 6.2572,0.7517 0.8336,0.4175 1.544,-0.7917 2.1286,-3.6299 -0.2504,-0.5826 -1.3769,-0.9162 -3.3796,-1.0007 z"
       style="fill:#00458f;fill-rule:evenodd"
       id="path5" />
    <path
       d="m 1006.9751,330.2017 c 0,0.251 0,0.5446 0,0.8782 -0.1677,1.251 -0.5845,1.9601 -1.251,2.1266 -0.5014,0.0845 -2.2118,0.669 -5.1314,1.7517 -0.5,0.169 -0.9194,0.2936 -1.2517,0.3755 -1.1691,0.1671 -1.8356,0.0845 -2.0027,-0.251 -0.5845,-1.0826 -0.2497,-2.1272 1.0014,-3.1273 0.7516,-0.4181 1.5014,-1.0426 2.253,-1.8782 0.4168,-0.5826 0.3323,-1.0001 -0.2503,-1.2517 -0.2497,0 -0.7104,0 -1.3769,0 -0.669,-0.0819 -1.1259,-0.1245 -1.3768,-0.1245 -0.8349,0.0845 -1.2104,-0.1665 -1.1259,-0.751 -0.0845,-0.1671 -0.1678,-0.4581 -0.2504,-0.8762 -0.2509,-0.5 -0.0845,-0.8756 0.5001,-1.1265 1.584,-0.2517 3.2544,-1.2917 5.0061,-3.1274 0.9181,-1.0852 1.544,-1.7943 1.8769,-2.1298 0.5839,-0.331 1.0427,-0.3755 1.3769,-0.1245 0.4168,0.2516 0.5013,0.6271 0.2503,1.1272 -0.5845,1 -1.7517,2.1272 -3.5041,3.3783 -0.2503,0.3335 -0.043,0.6245 0.6252,0.8762 0.3336,0.2509 0.8336,0.169 1.5027,-0.2517 1.3336,-1.1665 2.2098,-2.0001 2.6279,-2.5027 0.251,-0.5001 0.7078,-1.0001 1.3769,-1.5001 0.3323,-0.0826 0.6258,0 0.8755,0.249 0.1672,0.3355 0.1672,0.6691 0,1.002 -0.2497,0.4181 -0.709,0.8762 -1.3755,1.3762 -0.7517,0.5001 -1.3363,1.3356 -1.7531,2.5028 -0.5845,1.1691 -1.5014,2.2963 -2.7524,3.3789 -0.3349,0.251 -0.4607,0.502 -0.3762,0.7511 0.1671,0.3355 0.4168,0.4181 0.7517,0.2509 0.5,-0.1664 1.1665,-0.3755 2.0014,-0.6264 0.3323,0.0845 0.7517,-0.0401 1.2517,-0.3756 0.251,-0.249 0.4168,-0.249 0.5007,0 z m -0.751,4.881 v 0 c 0.083,-0.1664 0.2503,-0.2064 0.5013,-0.1245 0.1658,0.0845 0.2065,0.251 0.1245,0.5 0,0.0846 -0.043,0.251 -0.1245,0.5001 -0.085,0.3361 -0.085,0.5452 0,0.6271 -0.169,0.6691 -0.6258,1.1691 -1.3769,1.5027 -2.9221,1.1691 -5.2997,1.9601 -7.134,2.3763 -1.0007,0.251 -1.5453,-0.04 -1.6266,-0.8762 -0.0838,-0.5 -0.0432,-1.0427 0.1246,-1.6272 0.1671,-0.331 0.4581,-0.5001 0.8762,-0.5001 0.5013,0.2517 1.1265,0.0846 1.8769,-0.5 1.1684,-0.582 3.0453,-1.1272 5.6326,-1.6272 0.3323,0 0.7078,-0.0819 1.1259,-0.251 z m 10.2626,-4.0028 v 0 c 0.8323,0.0819 1.5014,0.0419 2.0027,-0.1271 0.9169,-0.082 1.8337,0.0445 2.7531,0.3755 0.3323,0.4181 0.3756,0.9607 0.1252,1.6272 -1.0852,0.6691 -1.9201,0.9607 -2.504,0.8755 -1.0001,0.0852 -1.8356,0.1691 -2.5028,0.2517 -0.3342,0.418 -0.5,1.0445 -0.5,1.8756 -0.085,0.5026 0.2503,0.7516 1.0013,0.7516 0.3323,0.0846 0.6672,0.1246 1.0014,0.1246 0.4155,0.0845 0.7917,0.1264 1.1259,0.1264 0.9168,0.3336 1.7937,0.4181 2.6286,0.2491 0.082,0 0.2909,0 0.6258,0 0.7504,-0.1646 1.3769,-0.2491 1.8769,-0.2491 0.1671,0 0.291,0.0426 0.3762,0.1245 0,0.0846 0,0.2091 0,0.3755 -0.3349,1.1692 -0.6259,1.9608 -0.8762,2.3789 -0.6691,1.1691 -2.046,1.4175 -4.13,0.751 -3.5041,-1.0846 -7.1773,-0.8336 -11.0137,0.7491 -0.9194,0.1691 -1.502,0 -1.7517,-0.5 -0.251,-0.5826 -0.3348,-1.3756 -0.251,-2.3782 0.082,-0.6672 0.3755,-0.8762 0.8769,-0.6246 0.4155,0.251 1.0013,0.251 1.7511,0 0.1671,-0.1671 1.3775,-0.3336 3.6299,-0.5007 0.6671,-0.0819 1.0839,-0.5419 1.2517,-1.3781 0,-1.0001 -0.2936,-1.5421 -0.8762,-1.6266 -0.9188,0.0845 -1.7956,0.251 -2.6279,0.502 -0.8349,0.249 -1.4208,0.1671 -1.7531,-0.251 -0.418,-0.8336 -0.5,-1.5853 -0.2497,-2.2518 0.1665,-0.5845 0.5014,-0.7936 1.0014,-0.6265 0.4168,0.0845 1.1252,0 2.1273,-0.2516 2.0846,-0.4155 3.7118,-0.54 4.8809,-0.3729 z m 3.0041,-10.7653 v 0 c 0.5,-0.1645 0.8756,-0.04 1.1259,0.3755 0.082,0.5026 -0.043,1.0027 -0.3755,1.5027 -0.085,0.0845 -0.3349,0.251 -0.7504,0.5 -1.0014,0.7517 -1.7117,1.2517 -2.1285,1.5027 -0.7498,0.8336 -0.5846,1.4601 0.5013,1.8763 1.584,0.0845 3.3357,0.42 5.2558,1.002 0.4168,0.249 0.6259,0.5 0.6259,0.7516 0,0.2491 -0.1678,0.5001 -0.5,0.7491 -0.3349,0.1691 -0.6691,0.4201 -1.0014,0.7511 -0.8349,0.92 -1.9208,1.0026 -3.2544,0.2516 -0.9188,-0.5001 -1.8769,-1.2943 -2.8783,-2.3789 -0.8349,-0.6665 -1.4607,-0.6665 -1.8769,0 -1.4194,1.8363 -3.3789,2.7118 -5.8817,2.6279 -0.3348,0.1684 -0.6691,0.211 -1.0013,0.1265 -0.2517,0.1665 -0.3762,0.0419 -0.3762,-0.3755 -0.084,-0.4162 -0.1677,-0.7917 -0.2497,-1.1272 -0.169,-0.1671 -0.2103,-0.291 -0.1258,-0.3755 0,-0.0826 0.1258,-0.1671 0.3755,-0.2491 2.1685,0.082 4.5061,-0.8336 7.0089,-2.7543 0.2503,-0.1665 0.3323,-0.3755 0.2503,-0.6265 -0.084,-0.1646 -0.2936,-0.2491 -0.6258,-0.2491 -0.5852,0.1691 -1.1698,0.2491 -1.7518,0.2491 -1.1704,0.0845 -1.753,-0.3736 -1.753,-1.3763 0,-0.6664 -0.043,-1.1665 -0.1252,-1.502 -0.083,-0.5007 0.2078,-0.7491 0.8769,-0.7491 0.5,0.4175 1.3756,0.4175 2.6273,0 1.9181,-0.2516 3.3363,-0.3335 4.2557,-0.2516 0.751,0.169 1.3337,0.0845 1.7524,-0.251 z"
       style="fill:#00458f;fill-rule:evenodd"
       id="path6" />
    <path
       d="m 1052.655,326.3228 c 0.6665,0.3335 0.8336,0.9181 0.5013,1.7517 -0.5013,0.9201 -1.0445,2.0872 -1.6272,3.5054 -0.084,0.5846 -0.1677,1.293 -0.2503,2.1272 v 0.1239 c 0.083,0.5852 0.4162,0.6272 1.0014,0.1271 0.4161,-0.5026 1.0413,-1.1271 1.8775,-1.8782 0.582,-0.5 1.0001,-1.0426 1.2504,-1.6272 0.083,-0.251 0.2071,-0.3335 0.3749,-0.251 0.1664,0.1684 0.2077,0.3355 0.1251,0.502 -0.5,0.9181 -0.7503,1.6692 -0.7503,2.2518 -0.6678,1.1691 -1.6259,2.3363 -2.8776,3.5054 -0.8356,0.6671 -1.3769,1.2091 -1.6266,1.6272 -0.5852,0.6665 -1.5859,1.4601 -3.0047,2.3763 -0.3342,0.251 -0.5846,0.3355 -0.7511,0.251 -0.083,-0.0826 -0.083,-0.291 0,-0.6265 -0.083,-1.0827 0.1259,-1.8763 0.6259,-2.3763 1.0833,-1.1698 1.835,-3.1699 2.2524,-6.0082 0.083,-0.7516 -0.2929,-1.0826 -1.1252,-1.0007 -0.085,0.0826 -0.2936,0.1671 -0.6259,0.2491 -0.6691,0.0845 -1.3362,0.2509 -2.0027,0.5 -0.5,0.2516 -0.8762,0.1271 -1.1259,-0.3729 -0.2503,-0.5026 -0.2935,-1.5453 -0.1258,-3.1299 0.083,-0.5001 0.4168,-0.7517 1.0014,-0.7517 1.0013,0.1691 1.8769,0.0426 2.6285,-0.3755 1.3337,-0.331 2.7531,-0.5 4.2545,-0.5 z m -0.1245,-5.8817 v 0 c 0.7504,0.3335 1.3762,0.5007 1.8769,0.5007 0.4168,0.0838 1.2078,0.3329 2.3782,0.751 0.5001,0.4174 0.4575,0.8336 -0.1245,1.251 -1.9214,1.1691 -3.2983,1.6698 -4.1306,1.5008 -0.6691,-0.08 -1.2104,-0.08 -1.6272,0 -0.6691,0.3355 -1.1272,0.42 -1.3769,0.251 -0.2503,-0.082 -0.6691,0 -1.2517,0.2509 -0.8342,0.4181 -1.3356,0.1671 -1.5014,-0.751 -0.1677,-0.8336 -0.2497,-1.7936 -0.2497,-2.8782 0.1652,-0.5827 0.4568,-0.8336 0.8756,-0.7517 0.5,0.2516 1.3768,0.2516 2.6285,0 1.3337,-0.331 2.1679,-0.3755 2.5028,-0.1245 z m 12.888,0.7516 v 0 c -0.082,0.9175 -0.373,1.6692 -0.8756,2.2518 -0.4181,0.5846 -0.6671,1.7956 -0.7516,3.6293 -0.2484,2.4208 0.6271,4.6726 2.6298,6.7572 0.6672,0.5007 2.3363,1.9627 5.0055,4.3816 0,0.0845 0.043,0.1665 0.1271,0.2491 0.4155,0.3355 0.7511,0.42 1.0001,0.2509 0.2491,-0.0825 0.4181,0 0.5,0.251 0.083,0.2491 0,0.4181 -0.2509,0.5007 -0.1665,0.0839 -0.3736,0.2929 -0.6246,0.6246 -0.1671,0.6684 -1.0446,1.1684 -2.6299,1.502 -1.4181,0.3336 -2.4182,0.3336 -3.0002,0 -1.1717,-0.9181 -2.0053,-2.2937 -2.5034,-4.13 -0.084,-0.0819 -0.3355,-0.6664 -0.751,-1.7517 -0.2516,-0.5 -0.42,-0.9175 -0.5026,-1.251 -0.751,-0.5827 -1.3336,-0.5827 -1.7517,0 -1.6711,3.3363 -3.3783,5.5061 -5.1314,6.5062 -1.1684,0.42 -1.9194,0.502 -2.2517,0.251 -0.5846,-0.5 -0.8762,-0.9581 -0.8762,-1.3756 -0.084,-0.3336 -0.2929,-0.6671 -0.6252,-1.0026 -0.1678,0 -0.2091,-0.0826 -0.1258,-0.2491 0.083,-0.0819 0.2077,-0.1264 0.3755,-0.1264 2.9195,-0.6672 5.63,-3.5854 8.1347,-8.76 0.5001,-1.3336 1.0007,-3.1699 1.5008,-5.5062 0.085,-0.751 -0.2091,-1.1272 -0.8762,-1.1272 -0.2491,0.0846 -0.4175,0.0426 -0.5,-0.1245 -0.085,-0.251 0,-0.4174 0.2509,-0.5 0.2491,0 0.5427,-0.1265 0.8762,-0.3755 0.1646,-0.1665 0.751,-0.6265 1.7518,-1.3782 0.751,-0.6671 1.3781,-0.5 1.8756,0.5026 z"
       style="fill:#00458f;fill-rule:evenodd"
       id="path7" />
    <path
       d="m 1098.9608,327.0738 c 0.9155,0 1.5027,0.0426 1.7511,0.1245 0.5826,0.7517 0.6271,1.5872 0.1245,2.5034 -0.833,1.3356 -1.333,3.1293 -1.5001,5.381 -0.084,0.3355 -0.084,0.5001 0,0.5001 0.083,0.0845 0.291,0 0.6245,-0.2491 0.5027,-0.251 1.1692,-0.7091 2.0028,-1.3756 0.082,0 0.1671,-0.0419 0.2516,-0.1271 0.082,-0.0819 0.1639,-0.1664 0.2484,-0.2484 0.084,-0.2516 0.2516,-0.3336 0.5026,-0.2516 0.1645,0.169 0.2065,0.3761 0.1245,0.6271 -0.249,0.2491 -0.46,0.6665 -0.6271,1.2511 l -0.1245,0.249 c -0.333,0.9207 -1.5447,2.1718 -3.6274,3.7545 -0.5026,0.42 -1.0871,1.0446 -1.7536,1.8782 -0.3362,0.3335 -0.6691,0.46 -1.0027,0.3755 -0.249,-0.082 -0.3736,-0.3755 -0.3736,-0.8756 v -0.1264 c 0.08,-0.4162 0.291,-0.9162 0.6272,-1.5008 0.5826,-0.8336 1.1646,-2.9608 1.7511,-6.3836 -0.1684,-1.0001 -0.5865,-1.4582 -1.253,-1.3763 -0.3336,0.2491 -0.9182,0.5852 -1.7518,1.0008 -0.3335,0.1684 -0.5426,0.2509 -0.6271,0.2509 -0.9181,0.2491 -1.4182,-0.0419 -1.5001,-0.8755 -0.084,-0.2516 -0.1671,-0.6271 -0.2516,-1.1272 0,-0.5826 0,-1.0426 0,-1.3756 0.085,-0.5026 0.3781,-0.709 0.8762,-0.6271 0.5026,0.1691 1.0026,0.0845 1.5026,-0.249 1.5027,-0.5027 2.8364,-0.8782 4.0055,-1.1272 z m -3.2544,-5.2565 v 0 c 0.1664,0.251 0.7071,0.209 1.6272,-0.1245 0.9155,-0.251 1.8762,-0.2917 2.8782,-0.1265 0.8336,0.251 1.5853,0.4194 2.2518,0.502 0.3336,0.0845 0.5026,0.249 0.5026,0.5 0,0.3336 -0.1245,0.5846 -0.3781,0.7517 -0.582,0.249 -1.0426,0.6245 -1.3736,1.1246 -0.251,0.3355 -0.671,0.46 -1.2537,0.3755 -0.169,0.0845 -0.6665,0.251 -1.5026,0.5026 -1.0846,0.4174 -1.8757,0.6665 -2.3763,0.7491 -2.0866,0.42 -3.0028,-0.2917 -2.7538,-2.1273 0,-0.0825 0.042,-0.2071 0.1246,-0.3755 0.2509,-0.7491 0.418,-1.2517 0.5026,-1.5007 0.5,-0.6672 1.082,-0.751 1.7511,-0.251 z m 19.8987,-0.5 v 0 c 0.6665,0.1684 1.3337,0.2929 2.0028,0.3755 0.6665,0.0845 0.9181,0.3755 0.751,0.8755 -0.1665,0.6691 -0.5001,1.2091 -1.0027,1.6272 -0.3329,0.1691 -0.9175,0.2091 -1.7511,0.1245 -0.5,-0.0825 -1.3762,-0.1245 -2.6272,-0.1245 -0.6698,0.0845 -1.0453,0.5001 -1.1272,1.2511 -0.251,0.6697 -0.1671,1.4607 0.251,2.3788 0,0.3336 0.249,0.5846 0.7516,0.7491 1.4182,-0.249 2.2518,-0.331 2.5028,-0.249 0.4155,0.169 0.791,0.209 1.1246,0.1245 0.5026,0.251 0.7091,0.5846 0.6265,1.0027 -0.1684,0.249 -0.2084,0.5 -0.1239,0.749 -0.085,0.6691 -0.7517,1.1266 -2.0053,1.3782 -0.4181,0 -1.0001,0 -1.7511,0 -0.5826,0 -0.9188,0.209 -1.0007,0.6246 -0.4181,1.1691 -0.5,2.1272 -0.249,2.8782 0,0.5846 0.458,0.8756 1.3762,0.8756 0.251,0 0.6245,0.0845 1.1271,0.2516 0.079,0.0845 0.2065,0.1245 0.373,0.1245 0,0.0845 0.085,0.1265 0.2516,0.1265 0.8336,0.1671 1.5846,0.209 2.2511,0.1245 0.4181,-0.1665 1.6272,-0.251 3.6325,-0.251 0.2491,0.0845 0.3736,0.1691 0.3736,0.251 0.082,0.169 0.04,0.2936 -0.1245,0.3755 -0.2491,0.1671 -0.4181,0.4181 -0.5026,0.7517 -0.4181,0.7491 -0.9182,1.5446 -1.5008,2.3763 -0.9175,0.92 -2.1272,1.1265 -3.6293,0.6265 -2.8363,-0.8336 -5.1745,-1.2092 -7.0062,-1.1272 -0.6717,0.2516 -1.5873,0.4181 -2.7564,0.5007 -0.6671,0 -1.2091,0.1684 -1.6272,0.5019 -0.5826,0.1665 -1.1246,0.2936 -1.6272,0.3736 -0.6665,0.0845 -1.0846,-0.2916 -1.2491,-1.1246 0,-0.0826 0.04,-0.3755 0.1245,-0.8762 0,-0.1664 0.04,-0.3335 0.1246,-0.5019 -0.085,-0.5007 0.3335,-0.8317 1.2536,-1.0008 1.0801,-0.0819 1.7917,-0.6264 2.1253,-1.6272 0,-0.1664 0.042,-0.5419 0.1265,-1.1265 0.082,-0.249 0.1664,-0.4581 0.2509,-0.6245 0.08,-0.3336 0.1246,-1.0853 0.1246,-2.2538 0,-1.5833 -0.045,-2.7098 -0.1246,-3.3789 -0.3355,-0.9162 -0.3774,-1.5427 -0.1264,-1.8762 0.5,-0.251 1.0826,0 1.7536,0.749 0.331,0.5846 0.4981,1.1717 0.4981,1.7543 -0.1671,0.6685 -0.1671,1.2511 0,1.7511 0.085,0.5846 0.042,1.1691 -0.1245,1.7518 -0.084,0.0845 -0.169,0.46 -0.249,1.1271 0,0.7511 0,1.4201 0,2.0021 -0.085,0.5852 0.249,0.7943 1,0.6252 0.2491,0 0.6272,-0.0826 1.1272,-0.249 0.4155,-0.2517 0.7091,-0.6272 0.8756,-1.1272 0,-0.1665 0,-0.4155 0,-0.751 0,-1.3343 0,-2.0853 0,-2.2518 -0.085,-0.4181 -0.1665,-1.2091 -0.251,-2.3782 0,-1.0027 0.042,-1.6698 0.1245,-2.0034 0.084,-0.4155 0.084,-1.082 0,-2.0027 0,-0.0819 0,-0.2065 0,-0.3755 -0.2491,-0.331 -0.8762,-0.54 -1.8763,-0.6246 -0.249,0.0846 -0.6265,0.2491 -1.1246,0.5001 -1.0026,0.5 -1.9627,0.6245 -2.8808,0.3755 -0.751,-1.5021 -0.7936,-2.4602 -0.1245,-2.8783 0.5826,-0.1664 0.9581,-0.3336 1.1272,-0.5 1,-0.502 1.7091,-0.5826 2.1272,-0.251 0.5826,0 1.1246,-0.0826 1.6266,-0.251 0.6671,-0.1652 1.9188,-0.2916 3.7551,-0.3736 1.5001,0 2.5027,0.042 3.0027,0.1246 z"
       style="fill:#00458f;fill-rule:evenodd"
       id="path8" />
  </g>
  <g
     id="Layer1002"
     transform="translate(-940.86669,-207.6708)">
    <g
       id="Layer1003">
      <path
         d="m 1071.1169,263.1262 -19.0007,-0.0723 -18.2193,-0.0587 -18.751,-0.0729 -19.0587,-0.0729 -13.9113,-0.0432 c 0,0 1.9111,4.3686 7.1173,9.4367 6.1914,6.0437 17.0586,13.1048 34.9262,14.9985 2.2499,0.2471 4.6178,0.409 7.1031,0.4671 0.7949,0.0129 1.6027,0.029 2.4266,0.029 0.044,0 0.1033,0 0.1478,0 0.691,0 1.3665,-0.0161 2.0292,-0.0161 2.4704,-0.0574 4.808,-0.1729 7.0437,-0.3774 11.0736,-0.9917 19.3226,-3.699 25.4398,-6.9754 4.8829,-2.6066 8.3973,-5.5771 10.9136,-8.3005 4.441,-4.821 5.7056,-8.8987 5.7056,-8.8987 z m -90.2791,-2.1118 v 0 h 147.2939 c 0,0 -13.4706,41.9842 -92.1469,41.9842 -71.3391,0 -94.442,-34.4114 -95.1033,-48.7853 -0.7356,-16.0192 25.7353,-46.5425 94,-46.5425 72.9114,0 93.0141,39.013 93.0141,39.013 h -42.4107 c 0,0 -10.5291,-26.9412 -49.5001,-26.2122 -64.9858,1.2227 -55.147,40.5428 -55.147,40.5428 z"
         style="fill:#00458f;fill-rule:evenodd"
         id="path9" />
      <path
         d="m 1071.1169,263.1262 13.9119,0.0432 c 0,0 -1.2646,4.0777 -5.7056,8.8987 l -0.089,-0.0729 h -13.7945 c 2.9118,-3.8448 5.19,-7.9812 5.6772,-8.869 z"
         style="fill:#ffffff;fill-rule:evenodd"
         id="path10" />
      <path
         d="m 1079.2342,271.9952 0.089,0.0729 c -2.5163,2.7234 -6.0307,5.6939 -10.9136,8.3005 h -12.3525 c 2.2653,-1.3981 4.339,-2.8401 5.7062,-4.1506 1.2801,-1.2091 2.5292,-2.6937 3.6764,-4.2228 z"
         style="fill:#ffffff;fill-rule:evenodd"
         id="path11" />
      <path
         d="m 1052.1162,263.0539 19.0007,0.0723 c -0.4872,0.8878 -2.7654,5.0242 -5.6772,8.869 h -16.1902 c 1.6905,-4.3984 2.7047,-8.2871 2.8667,-8.9413 z"
         style="fill:#ffffff;fill-rule:evenodd"
         id="path12" />
      <path
         d="m 1056.0571,280.3686 h 12.3525 c -6.1172,3.2764 -14.3662,5.9837 -25.4398,6.9754 v -0.0581 c 0,0 7.2211,-3.3209 13.0873,-6.9173 z"
         style="fill:#ffffff;fill-rule:evenodd"
         id="path13" />
      <path
         d="m 1049.2495,271.9952 h 16.1902 c -1.1472,1.5291 -2.3963,3.0137 -3.6764,4.2228 -1.3672,1.3105 -3.4409,2.7525 -5.7062,4.1506 h -10.9698 c 0.4859,-0.6716 0.9556,-1.3691 1.3524,-2.1266 1.0736,-2.0091 2.015,-4.1931 2.8098,-6.2468 z"
         style="fill:#ffffff;fill-rule:evenodd"
         id="path14" />
      <path
         d="m 1045.0873,280.3686 h 10.9698 c -5.8662,3.5964 -13.0873,6.9173 -13.0873,6.9173 v 0.0581 c -2.2357,0.2045 -4.5733,0.32 -7.0437,0.3774 0.8671,-0.422 5.8668,-2.9692 9.1612,-7.3528 z"
         style="fill:#ffffff;fill-rule:evenodd"
         id="path15" />
      <path
         d="m 1033.8969,262.9952 18.2193,0.0587 c -0.162,0.6542 -1.1762,4.5429 -2.8667,8.9413 h -15.3526 z"
         style="fill:#ffffff;fill-rule:evenodd"
         id="path16" />
      <path
         d="m 1033.8969,271.9952 h 15.3526 c -0.7948,2.0537 -1.7362,4.2377 -2.8098,6.2468 -0.3968,0.7575 -0.8665,1.455 -1.3524,2.1266 h -11.1904 z"
         style="fill:#ffffff;fill-rule:evenodd"
         id="path17" />
      <path
         d="m 1033.8969,280.3686 h 11.1904 c -3.2944,4.3836 -8.2941,6.9308 -9.1612,7.3528 -0.6627,0 -1.3382,0.0161 -2.0292,0.0161 z"
         style="fill:#ffffff;fill-rule:evenodd"
         id="path18" />
      <path
         d="m 1033.8969,280.3686 v 7.3689 c -0.044,0 -0.1039,0 -0.1478,0 -0.8239,0 -1.6317,-0.0161 -2.4266,-0.029 -0.9555,-0.4671 -5.8681,-3.0008 -9.118,-7.3399 z"
         style="fill:#ffffff;fill-rule:evenodd"
         id="path19" />
      <path
         d="m 1033.8969,271.9952 v 8.3734 h -11.6924 c -0.5001,-0.6716 -0.9556,-1.3691 -1.3524,-2.1266 -1.0736,-2.0091 -2.015,-4.1931 -2.8086,-6.2468 z"
         style="fill:#ffffff;fill-rule:evenodd"
         id="path20" />
      <path
         d="m 1033.8969,262.9952 v 9 h -15.8534 c -1.8678,-4.8352 -2.8976,-9.0439 -2.8976,-9.0439 v -0.029 z"
         style="fill:#ffffff;fill-rule:evenodd"
         id="path21" />
      <path
         d="m 1022.2045,280.3686 c 3.2499,4.3391 8.1625,6.8728 9.118,7.3399 -2.4853,-0.0581 -4.8532,-0.22 -7.1031,-0.4671 -0.8968,-0.422 -7.5295,-3.5228 -12.9854,-6.8728 z"
         style="fill:#ffffff;fill-rule:evenodd"
         id="path22" />
      <path
         d="m 1022.2045,280.3686 h -10.9705 c -2.2653,-1.3981 -4.3377,-2.8401 -5.7062,-4.1506 -1.2788,-1.2091 -2.544,-2.6937 -3.6905,-4.2228 h 16.2062 c 0.7936,2.0537 1.735,4.2377 2.8086,6.2468 0.3968,0.7575 0.8523,1.455 1.3524,2.1266 z"
         style="fill:#ffffff;fill-rule:evenodd"
         id="path23" />
      <path
         d="m 1018.0435,271.9952 h -16.2062 c -3.2796,-4.3403 -5.7501,-9.0439 -5.7501,-9.0439 v -0.1019 l 19.0587,0.0729 v 0.029 c 0,0 1.0298,4.2087 2.8976,9.0439 z"
         style="fill:#ffffff;fill-rule:evenodd"
         id="path24" />
      <path
         d="m 1011.234,280.3686 c 5.4559,3.35 12.0886,6.4508 12.9854,6.8728 -17.8676,-1.8937 -28.7348,-8.9548 -34.9262,-14.9985 l 0.2355,-0.2477 h 12.3086 c 1.1465,1.5291 2.4117,3.0137 3.6905,4.2228 1.3685,1.3105 3.4409,2.7525 5.7062,4.1506 z"
         style="fill:#ffffff;fill-rule:evenodd"
         id="path25" />
      <path
         d="m 996.0872,262.9513 c 0,0 2.4705,4.7036 5.7501,9.0439 h -12.3086 l -0.2355,0.2477 c -5.2062,-5.0681 -7.1173,-9.4367 -7.1173,-9.4367 l 13.9113,0.0432 z"
         style="fill:#ffffff;fill-rule:evenodd"
         id="path26" />
    </g>
    <g
       id="Layer1004">
      <path
         d="m 1035.0344,288.1885 h -2.2757 v -26.0818 h 2.2757 z"
         style="fill:#00458f;fill-rule:evenodd"
         id="path27" />
      <path
         d="m 1033.8969,288.8757 h -0.1478 c -0.7381,0 -1.4652,-0.0136 -2.1801,-0.0252 l -0.2652,-0.004 c -2.4376,-0.058 -4.8603,-0.2161 -7.2089,-0.4735 -18.4554,-1.9563 -29.5452,-9.4091 -35.5966,-15.3153 -5.3036,-5.1642 -7.2844,-9.6097 -7.3657,-9.7961 l -0.7,-1.5995 106.1395,0.3736 -0.4562,1.4704 c -0.055,0.1768 -1.3936,4.3797 -5.9546,9.3335 -3.0827,3.3351 -6.8553,6.205 -11.2162,8.5335 -7.1218,3.8145 -15.8288,6.2043 -25.874,7.1044 -2.1305,0.1955 -4.4597,0.32 -7.1186,0.382 z m -49.815,-24.9262 v 0 c 0.991,1.6659 2.895,4.4499 6.0042,7.4772 5.7959,5.6572 16.4412,12.7964 34.2534,14.6836 2.2872,0.251 4.6448,0.4046 7.0101,0.4601 l 0.2587,0.005 c 0.702,0.0109 1.415,0.0245 2.1408,0.0245 l 2.177,-0.0161 c 2.5808,-0.0594 4.859,-0.182 6.9404,-0.373 9.7407,-0.8716 18.1542,-3.1744 25.005,-6.8456 4.1364,-2.2072 7.7089,-4.9223 10.6162,-8.0689 2.6292,-2.8551 4.1028,-5.4501 4.839,-6.9941 z"
         style="fill:#00458f;fill-rule:evenodd"
         id="path28" />
      <path
         d="m 1079.2342,273.1333 h -89.7055 v -2.2763 h 89.7055 z"
         style="fill:#00458f;fill-rule:evenodd"
         id="path29" />
      <path
         d="m 1068.7625,281.5068 h -68.1021 v -2.2763 h 68.1021 z"
         style="fill:#00458f;fill-rule:evenodd"
         id="path30" />
      <path
         d="m 1030.9535,288.7886 c -1.1246,-0.5426 -6.2579,-3.1964 -9.6601,-7.7373 -0.5781,-0.7781 -1.0523,-1.5227 -1.4491,-2.2821 -0.9639,-1.8034 -1.9285,-3.9467 -2.8621,-6.3643 -1.8737,-4.8468 -2.8983,-9.009 -2.9415,-9.1832 l 2.2111,-0.5401 c 0.01,0.0407 1.0362,4.1997 2.8531,8.9032 0.9014,2.3318 1.8259,4.3913 2.7512,6.1204 0.3451,0.6594 0.7568,1.3066 1.2613,1.9834 3.0861,4.1209 7.7928,6.5527 8.7045,6.9973 l -0.3368,1.0955 z"
         style="fill:#00458f;fill-rule:evenodd"
         id="path31" />
      <path
         d="m 1043.4459,288.3195 -0.9517,-2.0672 c 0.072,-0.0329 7.2296,-3.3364 12.9674,-6.854 2.4937,-1.5376 4.35,-2.8848 5.5146,-4.0016 1.1162,-1.0556 2.3098,-2.4273 3.5518,-4.0842 2.5279,-3.3363 4.5881,-6.9037 5.5907,-8.7335 l 1.4246,0.6201 0.5936,0.4316 c -1.0555,1.9273 -3.1783,5.6036 -5.7907,9.051 -1.3156,1.7562 -2.5957,3.2266 -3.8009,4.3635 -1.2756,1.2227 -3.2583,2.6679 -5.8901,4.2925 -5.8597,3.5925 -13.1377,6.9489 -13.2093,6.9818 z"
         style="fill:#00458f;fill-rule:evenodd"
         id="path32" />
      <path
         d="m 1036.1783,288.8531 -0.7691,-2.1427 c 0.9349,-0.4581 5.6637,-2.8944 8.7677,-7.0263 0.3678,-0.5078 0.8562,-1.2085 1.255,-1.9698 0.9271,-1.735 1.8524,-3.7945 2.7563,-6.1295 1.7872,-4.6487 2.7828,-8.6373 2.824,-8.8045 l 0.1155,-0.338 2.0357,1.0181 -1.0182,-0.5091 1.0866,0.3226 c -0.053,0.2265 -1.0833,4.3487 -2.9196,9.129 -0.9381,2.4241 -1.9027,4.5681 -2.8686,6.3753 -0.4613,0.8814 -1.0091,1.6705 -1.4336,2.2569 -3.4312,4.5662 -8.5871,7.2225 -9.5865,7.709 z"
         style="fill:#00458f;fill-rule:evenodd"
         id="path33" />
      <path
         d="m 1023.7994,288.2976 c -2.4363,-1.1427 -8.3044,-3.9771 -13.1609,-6.9599 -2.6305,-1.6226 -4.6132,-3.0679 -5.8972,-4.297 -1.2349,-1.1678 -2.5208,-2.637 -3.8144,-4.3635 -2.6376,-3.4893 -4.7326,-7.1586 -5.5172,-8.5845 l -12.4931,0.0548 -0.01,-2.2763 13.8655,-0.0612 0.3213,0.6123 c 0.0245,0.0458 2.4699,4.6758 5.6514,8.887 1.2194,1.6259 2.4188,2.9983 3.5647,4.0822 1.173,1.1233 3.0293,2.4705 5.5223,4.0093 4.7565,2.9196 10.535,5.7114 12.799,6.776 l 0.2155,0.0981 z"
         style="fill:#00458f;fill-rule:evenodd"
         id="path34" />
    </g>
  </g>
</svg>
